<svg width="104" height="104" viewBox="0 0 104 104" fill="none" xmlns="http://www.w3.org/2000/svg">
<g id="solar:sun-broken">
<path id="Vector" d="M52 8.66699V13.0003M52 91.0003V95.3337M95.3333 52.0003H91M13 52.0003H8.66663M82.6366 21.3637L80.938 23.0667M23.062 80.9383L21.359 82.6413M82.6366 82.637L80.938 80.934M23.062 23.0623L21.359 21.3593M27.4776 43.3337C25.5136 48.8937 25.4979 54.9562 27.4331 60.5263C29.3683 66.0964 33.1395 70.8432 38.1277 73.9878C43.1159 77.1324 49.025 78.488 54.8851 77.8321C60.7452 77.1762 66.2083 74.5478 70.3779 70.3782C74.5475 66.2086 77.1759 60.7455 77.8318 54.8854C78.4876 49.0253 77.1321 43.1163 73.9874 38.1281C70.8428 33.1399 66.096 29.3687 60.5259 27.4335C54.9558 25.4983 48.8933 25.514 43.3333 27.478" stroke="#FD92DD" stroke-width="6.5" stroke-linecap="round"/>
</g>
</svg>
