<svg width="69" height="69" viewBox="0 0 69 69" fill="none" xmlns="http://www.w3.org/2000/svg">
<g id="gg:arrow-up-o">
<g id="Group" filter="url(#filter0_b_291_755)">
<g id="Vector" filter="url(#filter1_b_291_755)">
<path fill-rule="evenodd" clip-rule="evenodd" d="M12.4979 56.4168C24.7522 68.4199 44.4134 68.2163 56.4165 55.962C68.4197 43.7077 68.2161 24.0465 55.9617 12.0434C43.7074 0.0402968 24.0463 0.243897 12.0431 12.4982C0.0400166 24.7525 0.243617 44.4137 12.4979 56.4168ZM16.4487 52.3834C21.2632 57.0992 27.7539 59.7094 34.493 59.6396C41.232 59.5698 47.6673 56.8258 52.3831 52.0113C57.099 47.1967 59.7091 40.706 59.6393 33.967C59.5695 27.228 56.8255 20.7927 52.011 16.0768C47.1964 11.361 40.7057 8.75085 33.9667 8.82063C27.2277 8.89042 20.7924 11.6344 16.0766 16.449C11.3607 21.2635 8.75057 27.7542 8.82035 34.4932C8.89014 41.2323 11.6341 47.6675 16.4487 52.3834Z" fill="#120F10"/>
<path d="M16.4487 52.3834C21.2632 57.0992 27.7539 59.7094 34.493 59.6396C41.232 59.5698 47.6673 56.8258 52.3831 52.0113C57.099 47.1967 59.7091 40.706 59.6393 33.967C59.5695 27.228 56.8255 20.7927 52.011 16.0768C47.1964 11.361 40.7057 8.75085 33.9667 8.82063C27.2277 8.89042 20.7924 11.6344 16.0766 16.449C11.3607 21.2635 8.75057 27.7542 8.82035 34.4932C8.89014 41.2323 11.6341 47.6675 16.4487 52.3834Z" fill="#120F10"/>
<path d="M55.408 54.9742C43.9505 66.6715 25.1831 66.8659 13.4858 55.4083C1.78844 43.9508 1.59409 25.1834 13.0516 13.486C24.5092 1.78872 43.2766 1.59437 54.9739 13.0519C66.6712 24.5095 66.8656 43.2769 55.408 54.9742ZM15.4608 53.3919C20.5429 58.3697 27.3942 61.1249 34.5076 61.0512C41.621 60.9776 48.4138 58.0811 53.3916 52.9991C58.3695 47.9171 61.1246 41.0658 61.0509 33.9524C60.9773 26.839 58.0808 20.0462 52.9988 15.0683C47.9168 10.0905 41.0655 7.33534 33.9521 7.409C26.8387 7.48267 20.0459 10.3791 15.0681 15.4611C10.0902 20.5431 7.33506 27.3945 7.40872 34.5079C7.48239 41.6213 10.3788 48.4141 15.4608 53.3919ZM34.4783 58.228C28.1137 58.2939 21.9836 55.8287 17.4365 51.3749C12.8894 46.921 10.2979 40.8432 10.232 34.4786C10.1661 28.114 12.6312 21.9839 17.0851 17.4368C21.5389 12.8897 27.6167 10.2982 33.9813 10.2323C40.346 10.1664 46.4761 12.6315 51.0232 17.0853C55.5702 21.5392 58.1618 27.617 58.2277 33.9816C58.2936 40.3462 55.8285 46.4764 51.3746 51.0234C46.9207 55.5705 40.843 58.1621 34.4783 58.228Z" stroke="white" stroke-opacity="0.36" stroke-width="2.82341"/>
</g>
</g>
</g>
<defs>
<filter id="filter0_b_291_755" x="-16.0478" y="-16.0478" width="100.555" height="100.556" filterUnits="userSpaceOnUse" color-interpolation-filters="sRGB">
<feFlood flood-opacity="0" result="BackgroundImageFix"/>
<feGaussianBlur in="BackgroundImageFix" stdDeviation="9.61009"/>
<feComposite in2="SourceAlpha" operator="in" result="effect1_backgroundBlur_291_755"/>
<feBlend mode="normal" in="SourceGraphic" in2="effect1_backgroundBlur_291_755" result="shape"/>
</filter>
<filter id="filter1_b_291_755" x="-9.1576" y="-9.15757" width="86.7749" height="86.7751" filterUnits="userSpaceOnUse" color-interpolation-filters="sRGB">
<feFlood flood-opacity="0" result="BackgroundImageFix"/>
<feGaussianBlur in="BackgroundImageFix" stdDeviation="6.16496"/>
<feComposite in2="SourceAlpha" operator="in" result="effect1_backgroundBlur_291_755"/>
<feBlend mode="normal" in="SourceGraphic" in2="effect1_backgroundBlur_291_755" result="shape"/>
</filter>
</defs>
</svg>
