<svg width="83" height="83" viewBox="0 0 83 83" fill="none" xmlns="http://www.w3.org/2000/svg">
<g id="tdesign:mode-dark">
<path id="Vector" d="M54.7939 11.5645L49.8554 14.2654L54.7939 16.9664L57.4948 21.9049L60.1958 16.9664L65.1343 14.2654L60.1958 11.5645L57.4948 6.62598L54.7939 11.5645ZM36.0082 14.3796C31.4788 15.2986 27.2519 17.3376 23.7133 20.3105C20.1747 23.2833 17.4372 27.0953 15.7508 31.3982C14.0643 35.7012 13.4827 40.3581 14.059 44.9436C14.6353 49.5292 16.3512 53.8973 19.0499 57.6492C21.7486 61.401 25.3442 64.4171 29.5084 66.4219C33.6726 68.4266 38.2726 69.3563 42.8885 69.126C47.5044 68.8957 51.9891 67.5127 55.933 65.1033C59.8769 62.694 63.1544 59.335 65.4663 55.3331C57.2534 55.2693 49.3987 51.9619 43.6139 46.1317C37.8291 40.3015 34.5831 32.4212 34.5834 24.2081C34.5834 20.819 35.0364 17.5094 36.0082 14.3796ZM6.91669 41.4998C6.91669 22.3994 22.3996 6.91648 41.5 6.91648H47.4968L44.4949 12.104C42.4926 15.5623 41.5 19.6777 41.5 24.2081C41.4995 27.7827 42.2906 31.3131 43.8165 34.5456C45.3424 37.7782 47.5653 40.6327 50.3254 42.9041C53.0855 45.1756 56.3144 46.8076 59.7801 47.6829C63.2459 48.5583 66.8625 48.6553 70.3702 47.9669L76.1871 46.836L74.3092 52.4593C69.7269 66.1819 56.7755 76.0831 41.5 76.0831C22.3996 76.0831 6.91669 60.6002 6.91669 41.4998ZM70.8959 22.1885L74.0568 27.9639L79.8322 31.1248L74.0568 34.2857L70.8959 40.0611L67.7349 34.2857L61.9595 31.1248L67.7349 27.9639L70.8959 22.1885Z" fill="#FF4081"/>
</g>
</svg>
