<svg width="34" height="25" viewBox="0 0 34 25" fill="none" xmlns="http://www.w3.org/2000/svg">
<g id="fire 1" clip-path="url(#clip0_63_98)">
<g id="Group">
<g id="Group_2">
<path id="Vector" d="M29.1145 14.6372C28.7324 10.9087 26.4163 8.57221 24.373 6.5104C22.481 4.60161 20.8469 2.95327 20.8469 0.521725C20.8469 0.326413 20.701 0.147897 20.4696 0.0583953C20.2375 -0.0316437 19.9586 -0.0168976 19.7476 0.0980438C16.6789 1.74384 14.1185 4.51772 13.2241 7.1644C12.6032 9.00703 12.5211 11.0785 12.5095 12.4466C9.67564 11.993 9.03369 8.81582 9.02691 8.7812C8.99499 8.6164 8.86066 8.47299 8.66522 8.39468C8.46776 8.31738 8.23564 8.31176 8.03544 8.38603C7.88684 8.43994 4.38787 9.77246 4.18429 15.0928C4.17002 15.2698 4.16937 15.4474 4.16937 15.6249C4.16937 20.7936 9.78079 24.9992 16.6776 24.9992C16.6871 24.9997 16.6972 25.0007 16.7054 24.9992C16.7081 24.9992 16.7108 24.9992 16.7142 24.9992C23.594 24.9844 29.1857 20.7845 29.1857 15.6249C29.1857 15.3649 29.1145 14.6372 29.1145 14.6372ZM16.6776 23.9576C14.3784 23.9576 12.5082 22.4644 12.5082 20.6289C12.5082 20.5664 12.5075 20.5033 12.5136 20.426C12.5414 19.6519 12.7375 19.1235 12.9527 18.772C13.3558 19.421 14.0764 20.0176 15.2471 20.0176C15.6312 20.0176 15.942 19.7846 15.942 19.4968C15.942 18.7553 15.9624 17.8998 16.2087 17.1277C16.4279 16.4432 16.9518 15.7148 17.6155 15.131C17.9107 15.8888 18.4862 16.5021 19.048 17.1008C19.8522 17.9572 20.6835 18.8427 20.8294 20.3527C20.8382 20.4422 20.8471 20.5323 20.8471 20.6289C20.8469 22.4644 18.9767 23.9576 16.6776 23.9576Z" fill="white"/>
</g>
</g>
</g>
<defs>
<clipPath id="clip0_63_98">
<rect width="33.3551" height="25" fill="white"/>
</clipPath>
</defs>
</svg>
